<svg width="20" height="20" viewBox="0 0 20 20" xmlns="http://www.w3.org/2000/svg"><title>Shape Copy 3</title><path d="M19.566 9.064c.394-.4.533-.989.363-1.535A1.444 1.444 0 0 0 18.77 6.51l-4.843-.734a.635.635 0 0 1-.476-.362L11.287.834A1.421 1.421 0 0 0 10 0c-.55 0-1.043.32-1.286.834L6.55 5.414a.636.636 0 0 1-.477.362L1.23 6.51A1.444 1.444 0 0 0 .071 7.53c-.17.546-.03 1.134.363 1.534l3.504 3.565a.68.68 0 0 1 .182.585l-.826 5.034c-.073.443.038.874.313 1.214.427.53 1.172.69 1.768.364l4.33-2.377a.624.624 0 0 1 .59 0l4.331 2.377c.21.115.435.174.667.174a1.41 1.41 0 0 0 1.1-.538 1.51 1.51 0 0 0 .314-1.214l-.827-5.034a.68.68 0 0 1 .182-.585l3.504-3.565z" fill="#F8E81C" fill-rule="evenodd"/></svg>