<svg width="30" height="30" viewBox="0 0 30 30" xmlns="http://www.w3.org/2000/svg"><title>github</title><path d="M27.959 7.637c-1.34-2.35-3.158-4.21-5.453-5.58C20.21.685 17.703 0 14.984 0c-2.718 0-5.226.686-7.521 2.057-2.296 1.37-4.113 3.23-5.453 5.58C.67 9.987 0 12.552 0 15.333c0 3.341.953 6.346 2.858 9.015 1.906 2.668 4.367 4.515 7.385 5.54.351.067.611.02.78-.14a.79.79 0 0 0 .254-.598l-.01-1.078c-.007-.68-.01-1.272-.01-1.777l-.448.08a5.597 5.597 0 0 1-1.083.07 8.069 8.069 0 0 1-1.356-.14 2.997 2.997 0 0 1-1.308-.6 2.532 2.532 0 0 1-.858-1.227l-.195-.46a5.011 5.011 0 0 0-.614-1.017c-.28-.373-.563-.626-.85-.759l-.136-.1a1.446 1.446 0 0 1-.253-.24 1.099 1.099 0 0 1-.176-.28c-.039-.093-.007-.17.098-.23.104-.06.292-.089.566-.089l.39.06c.26.054.582.213.965.48.384.265.7.611.947 1.037.299.546.66.962 1.082 1.248.423.286.85.43 1.278.43.43 0 .8-.034 1.112-.1a3.82 3.82 0 0 0 .878-.3c.117-.892.436-1.577.956-2.057-.741-.08-1.408-.2-2-.359a7.863 7.863 0 0 1-1.833-.779 5.283 5.283 0 0 1-1.571-1.337c-.416-.533-.758-1.232-1.024-2.097-.267-.865-.4-1.863-.4-2.995 0-1.61.514-2.981 1.541-4.113-.481-1.21-.436-2.568.137-4.073.377-.12.936-.03 1.678.27.741.3 1.284.556 1.629.769.345.212.621.393.83.539a13.559 13.559 0 0 1 3.745-.52c1.288 0 2.537.174 3.747.52l.741-.48a10.428 10.428 0 0 1 1.795-.878c.69-.266 1.216-.34 1.58-.22.586 1.505.638 2.862.156 4.073 1.028 1.132 1.542 2.503 1.542 4.113 0 1.132-.134 2.133-.4 3.005-.267.872-.611 1.57-1.034 2.097a5.5 5.5 0 0 1-1.58 1.327c-.631.36-1.243.62-1.834.779-.592.16-1.259.28-2 .36.676.599 1.014 1.544 1.014 2.835v4.212c0 .24.081.44.244.599.163.16.42.206.77.14 3.019-1.025 5.48-2.872 7.386-5.54 1.905-2.67 2.858-5.674 2.858-9.015 0-2.782-.671-5.347-2.01-7.696z" fill="#D7D7D7" fill-rule="evenodd"/></svg>