<svg width="22" height="26" viewBox="0 0 22 26" xmlns="http://www.w3.org/2000/svg"><title>popcorn-logo</title><g fill="#FFF" fill-rule="evenodd"><path d="M5.651 15.765a4.689 4.689 0 0 1-2.15-1.015c-.06-.05-.12-.104-.178-.157l.685 9.91c.005.077.016.154.032.229.01.05.024.099.037.147.203.647.789 1.108 1.473 1.108h11.354c.082 0 .162-.008.242-.019.022-.003.043-.008.062-.01l.066-.017c.006-.002.014-.002.019-.005a1.57 1.57 0 0 0 .882-.637l.042-.063a1.543 1.543 0 0 0 .133-.286 1.616 1.616 0 0 0 .088-.37l.008-.077.685-9.91c-.059.053-.117.107-.179.157a4.627 4.627 0 0 1-2.15 1.015l-.3 9.153H14.37l.296-8.793a4.768 4.768 0 0 1-.882.751 4.622 4.622 0 0 1-1.486.64v7.405h-2.131v-7.408a4.667 4.667 0 0 1-2.368-1.39l.295 8.795h-2.13l-.313-9.153z"/><path d="M3.185 12.566a3.61 3.61 0 0 0 2.43 2.099 3.626 3.626 0 0 0 2.347-.2 3.61 3.61 0 0 0 2.202 1.945 3.608 3.608 0 0 0 2.131.003 3.595 3.595 0 0 0 2.203-1.945 3.575 3.575 0 0 0 1.462.309 3.574 3.574 0 0 0 2.143-.709 3.61 3.61 0 0 0 1.172-1.5c.096-.231.17-.476.216-.73a3.59 3.59 0 0 0-.397-6.947 3.59 3.59 0 0 0-4.625-2.834 3.588 3.588 0 0 0-6.476-.003 3.59 3.59 0 0 0-4.625 2.834 3.591 3.591 0 0 0-.4 6.948c.046.253.12.498.217.73z"/></g></svg>